<svg width="601" height="601" viewBox="0 0 601 601" fill="none" xmlns="http://www.w3.org/2000/svg">
<mask id="path-1-inside-1_15552_49" fill="white">
<path d="M300.194 573.26C300.194 588.522 312.592 601.025 327.788 599.622C361.663 596.493 394.828 587.618 425.842 573.313C465.237 555.143 500.223 528.644 528.387 495.644C556.551 462.645 577.222 423.929 588.975 382.167C600.728 340.405 603.284 296.591 596.466 253.746C589.648 210.901 573.618 170.045 549.482 133.994C525.346 97.9439 493.679 67.5571 456.663 44.9296C419.647 22.302 378.164 7.97211 335.074 2.92801C301.152 -1.04285 266.87 0.815337 233.697 8.35583C218.816 11.7386 210.912 27.473 215.649 41.9804V41.9804C220.386 56.4878 235.974 64.2429 250.923 61.1704C276.429 55.928 302.668 54.7779 328.648 57.8191C363.8 61.934 397.641 73.6241 427.838 92.0832C458.035 110.542 483.869 135.331 503.558 164.74C523.248 194.15 536.325 227.48 541.887 262.432C547.449 297.384 545.364 333.127 535.776 367.195C526.188 401.263 509.325 432.847 486.349 459.767C463.374 486.688 434.833 508.305 402.695 523.128C378.942 534.084 353.642 541.135 327.768 544.069C312.604 545.789 300.194 557.999 300.194 573.26V573.26Z"/>
</mask>
<path d="M300.194 573.26C300.194 588.522 312.592 601.025 327.788 599.622C361.663 596.493 394.828 587.618 425.842 573.313C465.237 555.143 500.223 528.644 528.387 495.644C556.551 462.645 577.222 423.929 588.975 382.167C600.728 340.405 603.284 296.591 596.466 253.746C589.648 210.901 573.618 170.045 549.482 133.994C525.346 97.9439 493.679 67.5571 456.663 44.9296C419.647 22.302 378.164 7.97211 335.074 2.92801C301.152 -1.04285 266.87 0.815337 233.697 8.35583C218.816 11.7386 210.912 27.473 215.649 41.9804V41.9804C220.386 56.4878 235.974 64.2429 250.923 61.1704C276.429 55.928 302.668 54.7779 328.648 57.8191C363.8 61.934 397.641 73.6241 427.838 92.0832C458.035 110.542 483.869 135.331 503.558 164.74C523.248 194.15 536.325 227.48 541.887 262.432C547.449 297.384 545.364 333.127 535.776 367.195C526.188 401.263 509.325 432.847 486.349 459.767C463.374 486.688 434.833 508.305 402.695 523.128C378.942 534.084 353.642 541.135 327.768 544.069C312.604 545.789 300.194 557.999 300.194 573.26V573.26Z" stroke="url(#paint0_linear_15552_49)" stroke-width="74" mask="url(#path-1-inside-1_15552_49)"/>
<circle cx="300.194" cy="300.893" r="210" fill="#09A66D"/>
<rect x="138.205" y="165.897" width="38.1723" height="420" transform="rotate(-45 138.205 165.897)" fill="white"/>
<rect x="165.197" y="462.882" width="38.1723" height="420" transform="rotate(-135 165.197 462.882)" fill="white"/>
<defs>
<linearGradient id="paint0_linear_15552_49" x1="323.207" y1="22.2671" x2="307.83" y2="589.178" gradientUnits="userSpaceOnUse">
<stop stop-color="white" stop-opacity="0"/>
<stop offset="1" stop-color="#09A66D"/>
</linearGradient>
</defs>
</svg>
